inDegrees=no
num_controls=7
num_derivatives=13
num_iterations=135
num_multipliers=7
num_parameters=0
num_slacks=7
num_states=26
objective=0.444855
objective_accelerations=0.058404
objective_balance=0.003677
objective_effort=0.023483
objective_height=0.353785
objective_ligament=0.005506
solver_duration=1794.244086
status=Solve_Succeeded
success=true
DataType=double
version=3
OpenSimVersion=4.5
endheader
time	/jointset/ground_pelvis/pelvis_tilt/value	/jointset/ground_pelvis/pelvis_tx/value	/jointset/ground_pelvis/pelvis_ty/value	/jointset/hip_l/hip_flexion_l/value	/jointset/hip_l/hip_adduction_l/value	/jointset/hip_l/hip_rotation_l/value	/jointset/back/lumbar_extension/value	/jointset/patellofemoral_l/patellar_flexion_l/value	/jointset/knee_l/knee_flexion_l/value	/jointset/knee_l/knee_adduction_l/value	/jointset/knee_l/knee_rotation_l/value	/jointset/ankle_l/ankle_angle_l/value	/jointset/subtalar_l/subtalar_angle_l/value	/jointset/ground_pelvis/pelvis_tilt/speed	/jointset/ground_pelvis/pelvis_tx/speed	/jointset/ground_pelvis/pelvis_ty/speed	/jointset/hip_l/hip_flexion_l/speed	/jointset/hip_l/hip_adduction_l/speed	/jointset/hip_l/hip_rotation_l/speed	/jointset/back/lumbar_extension/speed	/jointset/patellofemoral_l/patellar_flexion_l/speed	/jointset/knee_l/knee_flexion_l/speed	/jointset/knee_l/knee_adduction_l/speed	/jointset/knee_l/knee_rotation_l/speed	/jointset/ankle_l/ankle_angle_l/speed	/jointset/subtalar_l/subtalar_angle_l/speed	/forceset/tau_hip_flexion_l	/forceset/tau_hip_adduction_l	/forceset/tau_hip_rotation_l	/forceset/tau_knee_flexion_l	/forceset/tau_ankle_angle_l	/forceset/tau_subtalar_angle_l	/forceset/tau_lumbar_extension	lambda_cid13_p0	lambda_cid13_p1	lambda_cid13_p2	lambda_cid13_p3	lambda_cid13_p4	lambda_cid13_p5	lambda_cid14_p0	/jointset/ground_pelvis/pelvis_tilt/accel	/jointset/ground_pelvis/pelvis_tx/accel	/jointset/ground_pelvis/pelvis_ty/accel	/jointset/hip_l/hip_flexion_l/accel	/jointset/hip_l/hip_adduction_l/accel	/jointset/hip_l/hip_rotation_l/accel	/jointset/back/lumbar_extension/accel	/jointset/patellofemoral_l/patellar_flexion_l/accel	/jointset/knee_l/knee_flexion_l/accel	/jointset/knee_l/knee_adduction_l/accel	/jointset/knee_l/knee_rotation_l/accel	/jointset/ankle_l/ankle_angle_l/accel	/jointset/subtalar_l/subtalar_angle_l/accel	gamma_cid13_p0	gamma_cid13_p1	gamma_cid13_p2	gamma_cid13_p3	gamma_cid13_p4	gamma_cid13_p5	gamma_cid14_p0
1.5	-0.3762717511640366	-0.0281498145795891	0.7589636476195166	1.124557779569073	-0.4344609969385893	-0.2107777735250415	-0.226437303668089	0.8085053392537064	0.8085053392536243	-0.1291723246993836	-0.1459410093589833	0.1227692573774561	-0.02172667168019889	0.6980278507230735	0.2831949342331683	0.5448829485915974	-2.507639139020914	0.2074133593972885	-0.7186495315859297	0.3128706450505723	-2.024727091549131	-2.024727091549016	-0.1354688093597659	0.1353003699355404	-0.381784781753235	0.04360313621492958	-0.1787176080708589	0.02548105043565673	-0.00841210187379407	-0.2032352485676356	0.04549646673132976	0.04586981548963193	0.1712640106513208	-17.49441494955169	-19.8051683760832	6.187811396105115	-8.253268470253186	-519.9045414293026	-63.06986814423562	-24.78065914374434	0.7012346972917859	0.7357125802138089	-0.5251688880292699	-1.333858347525877	0.7162315260931196	-0.2145524196027136	1.502213916302408	-1.322731029227158	-1.322731029227133	0.1484301139480116	0.2166625504073371	-0.4961510029151597	0.5215312819010975	5.277210211124885e-07	3.715642402938546e-07	-3.139898471616589e-06	-1.549029076490499e-07	7.604705037171081e-07	-1.232929592128131e-07	4.806903537126697e-07
1.51	-0.3692564422676827	-0.02528142851770013	0.7643851148891716	1.09941645028322	-0.4323527305611156	-0.2179718465260884	-0.2232348845295873	0.7881941414703071	0.7881941414703132	-0.1305242053067958	-0.1445772183834679	0.1189266277632031	-0.0212666640002998	0.7049324408015208	0.2904378122509066	0.5392921984538829	-2.520267925289171	0.214215899790908	-0.7200431544374213	0.3275730208012756	-2.037229375397508	-2.037229375397404	-0.1349172691819567	0.1374611530240743	-0.3866826786482607	0.04839372759535356	-0.172711179006512	0.02482095840891583	-0.008043203627081687	-0.1999250170941828	0.04461790544047977	0.04524519461385258	0.1663543226710713	-17.54759541065207	-19.53025847823193	6.150463835574587	-7.855765369844946	-515.7525118505562	-63.31126700342005	-25.7003404856056	0.6699055012236608	0.7118886510251599	-0.5936222781677772	-1.17349849814695	0.6589443843825806	-0.08304281914952033	1.448225127159073	-1.171607086557007	-1.171607086558599	0.007013766487380935	0.2157116800525896	-0.4778452161656876	0.4573594833043597	5.197080514748239e-07	5.175215388766894e-07	-2.939411927978074e-06	-1.08362759753449e-07	7.596032544256861e-07	-2.995589292500205e-08	4.719315739452533e-07
1.52	-0.3621751206029252	-0.02234195102793953	0.7697471558171445	1.074159611188348	-0.4301771029620291	-0.225176110875896	-0.2198866464890379	0.7677663948436411	0.7677663948437362	-0.1318708709530708	-0.1431918344786723	0.1150367719433256	-0.02075884312315824	0.7112304044040694	0.2974132198074926	0.5329976802551563	-2.530741100824278	0.2208856037199773	-0.7206878013379984	0.3420344254601724	-2.048036860202446	-2.048036860202353	-0.134425817132548	0.1396189557916556	-0.391230022878063	0.05316577566343004	-0.166704749942174	0.0241608663821704	-0.007674305380362022	-0.1966147856207315	0.04373934414962885	0.04462057373806762	0.1614446346908152	-17.60376307314314	-19.25751389452374	6.116534236061639	-7.498602992741562	-511.6688910465046	-63.61291156350121	-26.61940046642254	0.5799094021119682	0.6822184879833474	-0.6659225002317123	-0.9027362008956473	0.6896642331830554	-0.06475722941980493	1.454019697941109	-0.9837712205393973	-0.9837712205393901	0.1364124882679071	0.2160664862168309	-0.4260404698704566	0.5178226194316052	4.988367134069426e-07	7.907563840581872e-07	-2.567249000941316e-06	-2.561053646552914e-08	7.40677356266033e-07	6.312310047451645e-08	4.592208592305659e-07
1.53	-0.3550338898800376	-0.0193340476786264	0.7750428298530257	1.048808695026316	-0.4279354743030844	-0.2323851459893372	-0.216395213098031	0.7472392247987248	0.7472392247987699	-0.1332115955913679	-0.1417863602446592	0.1111033811309104	-0.02020328525118131	0.7169020106108496	0.3041228208452428	0.5260264452276834	-2.539075827047451	0.2274106614708953	-0.7210055614579322	0.3562008137600493	-2.057097187648389	-2.057097187648377	-0.1337227554103335	0.1414704857612687	-0.3953697861126833	0.05794658262486301	-0.1603940362272072	0.02329853416303738	-0.007348311282955977	-0.1939962855764515	0.04389573492767873	0.0436025398026838	0.1563002730769666	-17.34837130566799	-18.86008004186667	6.053150129774112	-7.323654516356132	-507.7437382074551	-63.6279609419235	-27.53775923987402	0.5437473862194715	0.6586686335507025	-0.7291898259897072	-0.7438642007802165	0.6295363575116689	0.002160758215235996	1.390232548818173	-0.8222559884595548	-0.8222559884719171	0.03687876977950129	0.1685071695723547	-0.3961494946608931	0.4583008299115522	4.643033588819563e-07	1.199223622500763e-06	-2.012679916543926e-06	9.561701692672915e-08	7.025641436838843e-07	1.559278914302241e-07	4.423112136344032e-07
1.54	-0.3478393508638318	-0.01626038077455982	0.7802654983742352	1.023385426928501	-0.4256294731043378	-0.2395938694716791	-0.2127636589934644	0.7266304329829804	0.7266304329829772	-0.1345453644613217	-0.1403626085275067	0.1071309516372679	-0.0195999010905076	0.7218920630679708	0.3105659307581817	0.518396577320823	-2.545211487980705	0.2337601116804347	-0.7206254751180503	0.3700585681722159	-2.064361214367848	-2.064361214367919	-0.1330346634648691	0.1432744524204348	-0.3990377591234267	0.06273103340279232	-0.1540833225122498	0.02243620194389949	-0.007022317185516393	-0.1913777855321759	0.04405212570572697	0.04258450586729287	0.1511559114631112	-17.09484684550848	-18.46626626326205	5.994852854577762	-7.185823506115344	-503.8608855432968	-63.6945551605514	-28.45603142368004	0.4435986521801695	0.6289202630210923	-0.797649076109163	-0.4629231429116933	0.6545427249073205	0.07481206254331826	1.392292920399046	-0.6245110752429084	-0.6245110752428957	0.1334185329178875	0.2065538241274316	-0.3316824250950715	0.5185513827308798	4.416188463077218e-07	1.459536222500438e-06	-1.670754550585e-06	1.708361851938274e-07	6.845379105550344e-07	2.306811080132827e-07	4.30393204766923e-07
